<svg xmlns="http://www.w3.org/2000/svg" width="128" height="128" viewBox="0 0 28 28"><path fill="#ffe577" d="M16.35 4.999c-5.798 0-12.25 3.035-12.25 8.833s3.785 9.126 9.583 9.167c2.167.015 6.387.011 9.708-6.279.161-.306 1.692-3.575 1.66-3.912-.001 0 .799-7.809-8.701-7.809z"/><path d="M13 26C6.935 26 2 21.065 2 15S6.935 4 13 4c2.108 0 4.161.602 5.934 1.739a.5.5 0 1 1-.54.841A9.979 9.979 0 0 0 13 5C7.486 5 3 9.486 3 15s4.486 10 10 10 10-4.486 10-10c0-.329-.016-.655-.047-.977a.5.5 0 0 1 .449-.546.506.506 0 0 1 .546.45c.034.353.052.71.052 1.073 0 6.065-4.935 11-11 11z"/><path d="M14.5 17.25a.502.502 0 0 1-.354-.146l-4.5-4.5a.5.5 0 0 1 .707-.707l4.146 4.146L25.146 5.396a.5.5 0 0 1 .707.707l-11 11a.495.495 0 0 1-.353.147z"/></svg>