<svg xmlns="http://www.w3.org/2000/svg" width="128" height="128" viewBox="0 0 28 28"><path fill="#909090" d="M8.794 7.688H21.69a2.808 2.808 0 0 1 2.745 3.403c-.273 1.256-.511 3.877-.511 4.41 0 .827.082 5.734.138 8.958a2.807 2.807 0 0 1-2.808 2.855H8.794a2.809 2.809 0 0 1-2.809-2.809V10.496a2.81 2.81 0 0 1 2.809-2.808z"/><path d="M20.5 26h-13A2.503 2.503 0 0 1 5 23.5v-14a.5.5 0 0 1 1 0v14c0 .827.673 1.5 1.5 1.5h13c.827 0 1.5-.673 1.5-1.5v-14a.5.5 0 0 1 1 0v14c0 1.379-1.121 2.5-2.5 2.5z"/><path d="M24.5 10h-21a.5.5 0 0 1-.5-.5v-2C3 6.122 4.122 5 5.5 5h17C23.879 5 25 6.122 25 7.5v2a.5.5 0 0 1-.5.5zM4 9h20V7.5c0-.827-.673-1.5-1.5-1.5h-17C4.673 6 4 6.673 4 7.5z"/><path d="M18.5 6a.5.5 0 0 1-.5-.5v-2a.5.5 0 0 0-.5-.5h-7a.5.5 0 0 0-.5.5v2a.5.5 0 0 1-1 0v-2c0-.827.673-1.5 1.5-1.5h7c.827 0 1.5.673 1.5 1.5v2a.5.5 0 0 1-.5.5zM14 22a.5.5 0 0 1-.5-.5v-8a.5.5 0 0 1 1 0v8a.5.5 0 0 1-.5.5zM9.5 22a.5.5 0 0 1-.5-.5v-8a.5.5 0 0 1 1 0v8a.5.5 0 0 1-.5.5zM18.5 22a.5.5 0 0 1-.5-.5v-8a.5.5 0 0 1 1 0v8a.5.5 0 0 1-.5.5z"/></svg>