<svg xmlns="http://www.w3.org/2000/svg" xml:space="preserve" width="128" height="128" viewBox="0 0 28 28"><path fill="#FFE577" d="M19.464 5C17.577 4.956 5.65 15.4 5.375 17.675 5.1 19.95 8.05 24.85 10.4 23.7c2.35-1.15 9.867-10.269 10.45-12.65.6-2.45.779-6-1.386-6.05z"/><path d="M2.5 26a.5.5 0 0 1-.478-.649l2.262-7.211a.5.5 0 0 1 .124-.204L18.404 3.939a.514.514 0 0 1 .707 0l4.949 4.95a.5.5 0 0 1 0 .707L10.064 23.592a.5.5 0 0 1-.204.124l-7.211 2.262A.503.503 0 0 1 2.5 26zm2.702-7.445-1.938 6.181 6.181-1.938L23 9.243 18.758 5 5.202 18.555zm4.509 4.683h.01-.01z"/><path d="M23 9.036a.504.504 0 0 1-.354-.146l-3.535-3.536a.5.5 0 0 1 0-.707l1.768-1.768A3.002 3.002 0 0 1 26 5c0 .801-.313 1.555-.879 2.121l-1.768 1.768a.496.496 0 0 1-.353.147zM20.172 5 23 7.829l1.414-1.415C24.792 6.036 25 5.534 25 5s-.208-1.036-.586-1.414a2.003 2.003 0 0 0-2.828 0L20.172 5zM9.711 23.738a.502.502 0 0 1-.354-.146l-4.949-4.95a.5.5 0 0 1 .707-.707l4.949 4.95a.5.5 0 0 1-.353.853zM8.857 10.45a.5.5 0 0 1-.354-.853l4.95-4.95c.946-.945 2.593-.943 3.535 0l.707.707a.5.5 0 0 1-.707.707l-.707-.707c-.565-.567-1.554-.567-2.121 0l-4.95 4.95a.498.498 0 0 1-.353.146z"/></svg>