<svg xmlns="http://www.w3.org/2000/svg" width="128" height="128" viewBox="0 0 28 28"><path fill="#ffe577" d="M11.915 20.378c-.171.189-.402.295-.643.295s-.473-.106-.643-.295l-4.814-5.327c-.71-.786-.71-2.06 0-2.846s1.959-1.782 2.67-.996l1.98 2.709a.849.849 0 0 0 1.286 0l7.863-7.751c.71-.786 1.862-.786 2.572 0s.71 2.06 0 2.846z"/><path d="M11 21.915c-.4 0-.777-.156-1.061-.439l-6-6.001a1.489 1.489 0 0 1-.439-1.06c0-.4.156-.778.439-1.062l1.414-1.414a1.503 1.503 0 0 1 2.121 0L11 15.465l9.525-9.525a1.502 1.502 0 0 1 2.121 0l1.414 1.414c.284.282.44.66.44 1.061s-.156.777-.439 1.06l-12 12.001a1.498 1.498 0 0 1-1.061.439zm.707-.793h.01zM6.414 12.5a.502.502 0 0 0-.354.146L4.646 14.06a.502.502 0 0 0 0 .708l6 6.001a.512.512 0 0 0 .707 0l12-12.001a.498.498 0 0 0 0-.707l-1.414-1.414a.5.5 0 0 0-.707 0l-9.879 9.879a.5.5 0 0 1-.707 0l-3.879-3.879a.495.495 0 0 0-.353-.147z"/></svg>